<?xml version="1.0" standalone="no"?>
<!DOCTYPE svg PUBLIC "-//W3C//DTD SVG 20010904//EN"
 "http://www.w3.org/TR/2001/REC-SVG-20010904/DTD/svg10.dtd">
<svg version="1.0" xmlns="http://www.w3.org/2000/svg"
 width="420.000000pt" height="420.000000pt" viewBox="0 0 420.000000 420.000000"
 preserveAspectRatio="xMidYMid meet">
<metadata>
Created by potrace 1.14, written by Peter Selinger 2001-2017
</metadata>
<g transform="translate(0.000000,420.000000) scale(0.100000,-0.100000)"
fill="#000000" stroke="none">
<path d="M2234 3715 c-34 -7 -95 -27 -135 -44 -41 -17 -104 -36 -141 -41 -118
-17 -207 -54 -298 -125 -36 -28 -70 -44 -98 -49 -24 -3 -59 -13 -78 -21 -28
-12 -34 -19 -34 -45 0 -38 -20 -87 -60 -145 -46 -68 -129 -259 -150 -350 -12
-47 -27 -179 -37 -320 -20 -278 -20 -318 -3 -350 10 -18 11 -40 4 -87 l-10
-63 -26 51 c-15 28 -42 64 -59 79 -31 26 -33 26 -40 8 -14 -38 -14 -97 -1 -89
15 9 54 -25 68 -60 8 -18 14 -56 14 -83 0 -27 9 -78 20 -113 44 -141 6 -199
-63 -93 -10 17 -16 22 -13 12 3 -10 6 -22 6 -26 0 -5 11 -20 25 -35 17 -18 34
-26 58 -26 l34 0 32 -123 c58 -219 143 -369 300 -527 188 -189 332 -264 531
-277 173 -11 321 41 505 178 195 145 295 276 386 509 l37 95 40 0 c29 0 46 6
57 20 20 25 55 92 55 102 -1 4 -10 -9 -21 -29 -22 -43 -62 -73 -84 -64 -20 7
-12 41 26 118 16 31 38 92 50 135 12 43 28 86 37 96 17 20 51 23 53 5 1 -7 5
5 10 27 9 47 2 105 -14 105 -7 0 -38 -28 -69 -62 l-58 -61 0 31 c0 17 5 43 11
59 15 37 18 55 34 218 42 410 39 495 -16 657 -24 72 -29 101 -27 160 l3 72 48
14 c26 7 47 19 47 26 0 23 -64 110 -130 176 -40 40 -93 80 -136 102 -71 37
-294 108 -339 108 -34 0 -38 13 -18 55 24 49 11 66 -68 87 -77 20 -181 21
-265 3z m-218 -710 c135 -18 188 -30 250 -56 110 -45 197 -93 278 -151 86 -62
97 -58 110 36 5 40 13 66 20 66 7 0 43 -32 81 -70 77 -80 100 -86 125 -33 18
39 32 41 50 8 7 -14 17 -25 21 -25 12 0 31 -69 25 -93 -3 -12 -10 -71 -16
-131 -6 -60 -13 -113 -16 -117 -3 -5 -27 14 -54 40 -70 69 -127 94 -224 99
-133 7 -236 -25 -236 -72 0 -44 23 -51 93 -30 90 27 189 25 252 -6 27 -13 65
-38 85 -56 19 -17 43 -33 53 -35 16 -4 17 -30 19 -364 2 -418 9 -384 -115
-605 -95 -168 -127 -209 -270 -340 -160 -148 -193 -163 -389 -184 -162 -18
-215 -13 -303 28 -28 12 -68 38 -89 57 -46 40 -188 203 -238 274 -75 105 -174
329 -204 462 -25 111 -22 188 14 343 34 148 43 251 45 525 2 164 4 186 26 243
29 76 94 152 155 182 94 45 152 45 452 5z"/>
<path d="M1610 2612 c-100 -34 -170 -83 -170 -120 0 -32 14 -34 63 -7 113 60
219 70 331 30 76 -27 101 -22 112 20 8 34 1 41 -64 65 -80 31 -200 36 -272 12z"/>
<path d="M1827 2425 c-22 -21 -22 -53 1 -78 9 -11 12 -18 6 -14 -6 4 -41 9
-77 13 -98 9 -191 -21 -257 -84 -28 -26 -50 -56 -50 -65 0 -9 -4 -17 -8 -17
-13 0 -2 -58 13 -70 10 -9 12 -7 9 7 -8 32 56 124 110 158 43 26 59 30 120 30
81 -1 130 -21 182 -77 48 -50 67 -96 68 -160 1 -46 3 -54 15 -45 7 6 23 16 35
22 20 10 21 18 21 135 0 109 -3 130 -22 167 -39 73 -129 115 -166 78z"/>
<path d="M2447 2406 c-93 -34 -137 -107 -161 -269 -17 -113 -11 -141 32 -145
28 -3 32 0 32 20 0 41 46 122 93 165 78 72 180 81 281 25 57 -32 116 -115 116
-164 0 -28 17 -39 25 -15 18 48 7 79 -55 159 -36 46 -133 86 -223 91 -43 2
-80 6 -82 9 -3 2 4 22 15 43 23 45 25 66 8 83 -15 15 -33 15 -81 -2z"/>
<path d="M1652 2264 c-68 -35 -108 -122 -84 -184 8 -22 21 -27 96 -43 77 -16
89 -16 115 -3 33 18 45 11 30 -16 -21 -39 15 -13 39 28 40 69 20 155 -49 206
-36 26 -107 32 -147 12z m38 -63 c7 -15 6 -23 -6 -35 -12 -12 -20 -13 -35 -6
-19 10 -26 40 -12 53 13 14 43 7 53 -12z"/>
<path d="M2522 2193 c-72 -35 -102 -127 -68 -208 l15 -35 63 6 c35 3 82 9 105
15 23 5 49 6 59 2 27 -10 44 24 44 88 0 48 -5 63 -27 90 -48 57 -126 74 -191
42z m42 -60 c9 -22 -13 -45 -38 -41 -26 4 -33 38 -11 54 20 15 41 9 49 -13z"/>
<path d="M1972 1738 c-7 -7 -12 -34 -12 -60 0 -39 5 -54 25 -72 65 -60 252
-61 291 -1 25 38 29 98 9 118 -23 24 -42 21 -49 -7 -7 -30 -47 -39 -133 -30
-64 7 -93 22 -93 50 0 17 -22 18 -38 2z"/>
<path d="M1629 1554 c-16 -20 -2 -46 29 -54 23 -5 90 -131 96 -179 4 -38 29
-80 80 -136 25 -28 43 -57 41 -65 -13 -42 75 -123 174 -161 100 -37 174 -14
284 90 61 57 174 230 142 218 -22 -9 -20 -4 25 70 22 37 40 73 40 80 0 8 12
13 29 13 56 0 66 55 15 78 -36 17 -45 15 -77 -15 l-28 -28 -187 3 c-175 2
-416 22 -507 42 -23 5 -48 20 -60 34 -24 30 -75 35 -96 10z m479 -494 c12 0
22 -4 22 -10 0 -11 -49 -14 -74 -4 -25 9 -19 27 7 20 12 -3 32 -6 45 -6z"/>
<path d="M1081 1824 c0 -11 3 -14 6 -6 3 7 2 16 -1 19 -3 4 -6 -2 -5 -13z"/>
</g>
</svg>
